<svg width="24" height="24" viewBox="0 0 24 24" fill="none" xmlns="http://www.w3.org/2000/svg">
<path d="M4.00256 10.812L8.97351 15.5277C9.13428 15.6784 9.22781 15.8819 9.23472 16.0962C9.24163 16.3105 9.16139 16.5191 9.01063 16.6788C8.85986 16.8385 8.65013 16.9371 8.42488 16.954C8.19962 16.971 7.97611 16.9052 7.80064 16.7701L7.72883 16.7086L1.25767 10.5689C1.10442 10.4235 1.01313 10.2295 1.00131 10.0241C0.989489 9.8188 1.05796 9.61654 1.1936 9.45613L1.25767 9.388L7.72883 3.24828C7.88762 3.09575 8.10217 3.00701 8.32803 3.00045C8.55389 2.9939 8.77375 3.07002 8.94207 3.21306C9.11039 3.3561 9.21426 3.5551 9.23217 3.76881C9.25008 3.98253 9.18065 4.1946 9.03827 4.36107L8.97351 4.42854L4.00608 9.1422H10.328C12.6188 9.1422 14.7491 9.62311 16.5964 10.5435L16.8851 10.6932C18.7644 11.689 20.3155 13.1603 21.3653 14.9433C22.4382 16.7581 23 18.8774 23 21.1651C23 21.3866 22.9073 21.5989 22.7423 21.7555C22.5772 21.9121 22.3534 22.0001 22.12 22.0001C21.8866 22.0001 21.6628 21.9121 21.4977 21.7555C21.3327 21.5989 21.24 21.3866 21.24 21.1651C21.24 19.158 20.7528 17.3211 19.8299 15.7602C18.9388 14.2452 17.6214 12.995 16.0248 12.1493C14.471 11.323 12.6575 10.8641 10.6786 10.8161L10.328 10.812H4.00256L8.97351 15.5277L4.00256 10.812Z" fill="white"/>
</svg>
