<svg width="61" height="60" viewBox="0 0 61 60" fill="none" xmlns="http://www.w3.org/2000/svg">
<path d="M55.5 30H40.5L35.5 37.5H25.5L20.5 30H5.5" stroke="#797979" stroke-width="2" stroke-linecap="round" stroke-linejoin="round"/>
<path d="M14.125 12.775L5.5 30V45C5.5 46.3261 6.02678 47.5979 6.96447 48.5355C7.90215 49.4732 9.17392 50 10.5 50H50.5C51.8261 50 53.0979 49.4732 54.0355 48.5355C54.9732 47.5979 55.5 46.3261 55.5 45V30L46.875 12.775C46.4611 11.942 45.8229 11.2409 45.0324 10.7507C44.2418 10.2605 43.3302 10.0005 42.4 10H18.6C17.6698 10.0005 16.7582 10.2605 15.9676 10.7507C15.1771 11.2409 14.5389 11.942 14.125 12.775V12.775Z" stroke="#797979" stroke-width="2" stroke-linecap="round" stroke-linejoin="round"/>
</svg>
