<svg width="25" height="24" viewBox="0 0 25 24" fill="none" xmlns="http://www.w3.org/2000/svg">
<path d="M21.7928 11.05L12.5072 20.24C11.3697 21.3658 9.82685 21.9983 8.21811 21.9983C6.60937 21.9983 5.06652 21.3658 3.92896 20.24C2.79141 19.1141 2.15234 17.5872 2.15234 15.995C2.15234 14.4028 2.79141 12.8758 3.92896 11.75L13.2145 2.55998C13.9729 1.80942 15.0015 1.38776 16.074 1.38776C17.1464 1.38776 18.175 1.80942 18.9334 2.55998C19.6918 3.31054 20.1178 4.32852 20.1178 5.38998C20.1178 6.45144 19.6918 7.46942 18.9334 8.21998L9.63772 17.41C9.25853 17.7853 8.74425 17.9961 8.208 17.9961C7.67176 17.9961 7.15747 17.7853 6.77829 17.41C6.39911 17.0347 6.18608 16.5257 6.18608 15.995C6.18608 15.4643 6.39911 14.9553 6.77829 14.58L15.3566 6.09998" stroke="#5BC767" stroke-width="2" stroke-linecap="round" stroke-linejoin="round"/>
</svg>
