<svg width="185" height="219" viewBox="0 0 185 219" fill="none" xmlns="http://www.w3.org/2000/svg">
<path opacity="0.3" d="M63.642 68.0946H159.746C163.066 68.0946 165.757 71.0026 165.757 74.59V117.447C165.757 121.035 163.066 123.943 159.746 123.943H84.084C81.0228 128.561 75.4691 136.829 74.9789 136.829C74.5197 136.829 75.4029 129.019 76.0255 123.943H63.642C60.3222 123.943 57.6312 121.035 57.6312 117.447V74.59C57.6312 71.0048 60.3222 68.0946 63.642 68.0946Z" fill="#AEFFB7"/>
<path d="M67.6117 56.9791H163.716C167.036 56.9791 169.727 59.8871 169.727 63.4746V106.332C169.727 109.919 167.036 112.827 163.716 112.827H88.0537C84.9925 117.445 79.4388 125.713 78.9486 125.713C78.4894 125.713 79.3726 117.903 79.9952 112.827H67.6117C64.2919 112.827 61.6009 109.919 61.6009 106.332V63.4746C61.6009 59.8871 64.2919 56.9791 67.6117 56.9791Z" fill="#5BC767"/>
<path d="M143.28 99.9287C135.603 96.4566 131.984 86.9165 135.197 78.6205C138.41 70.3244 147.238 66.4139 154.915 69.8861C162.592 73.3583 166.211 82.8984 162.998 91.1944C159.785 99.4904 150.957 103.401 143.28 99.9287Z" fill="white"/>
<path d="M156.943 85.3301C156.943 85.3301 158.436 78.705 154.877 76.224C151.317 73.7429 147.517 73.1752 144.919 74.6035C141.318 76.5861 139.839 81.9393 140.992 84.9032L150.548 82.3104L156.943 85.3301Z" fill="#040744"/>
<path d="M146.716 93.1086H151.141V97.8829H146.716V93.1086Z" fill="#FFC0BB"/>
<path d="M146.716 95.9697V93.1086H151.141V95.5427C150.187 96.0948 148.776 96.4122 146.716 95.9697Z" fill="#F99893"/>
<path d="M139.738 84.5635C140.2 84.3176 140.735 84.3623 141.221 84.6261C141.054 79.9166 144.616 75.9536 149.1 76.1212C153.584 75.9536 157.144 79.9166 156.978 84.6261C157.462 84.3601 158 84.3176 158.461 84.5635C159.347 85.0351 159.622 86.3852 159.076 87.581C158.53 88.7746 157.369 89.3624 156.484 88.8908C156.362 88.826 156.25 88.741 156.153 88.6449C155.646 92.5386 152.635 95.4578 149.102 95.4041C145.569 95.4578 142.558 92.5386 142.051 88.6449C141.952 88.741 141.842 88.826 141.72 88.8908C140.835 89.3624 139.674 88.7768 139.128 87.581C138.578 86.3852 138.853 85.0351 139.738 84.5635Z" fill="#FFC0BB"/>
<path d="M146.205 90.1268C146.4 91.0701 147.401 91.8121 148.625 91.8546C149.852 91.8948 150.892 91.2198 151.141 90.29L146.205 90.1268Z" fill="white"/>
<path d="M156.978 84.626C156.978 84.626 151.187 82.7306 148.653 79.5655C148.653 79.5655 149.371 83.3788 149.905 83.9867C149.735 84.1074 144.121 81.1592 143.358 78.4368C142.595 75.7143 149.098 74.7375 149.098 74.7375C149.098 74.7375 151.325 75.7613 151.439 75.8238C151.551 75.8842 153.642 76.1479 153.882 76.7246C154.194 77.4734 155.669 77.5405 155.669 77.5405L156.6 79.6348L157.251 81.8387L156.978 84.626Z" fill="#040744"/>
<path d="M161.721 76.0072C160.443 76.5637 158.964 76.8208 157.433 76.3112C154.054 75.1891 152.715 75.625 152.267 75.8999C151.996 76.0653 151.675 76.1301 151.379 76.0251C151.046 75.9044 150.736 75.578 150.833 74.7555C150.833 74.7555 150.699 71.2865 153.452 69.3083C156.885 70.4282 159.802 72.8332 161.721 76.0072Z" fill="#040744"/>
<path d="M154.447 75.7793C154.549 75.6362 154.516 75.4306 154.379 75.3322C153.814 74.9321 152.362 74.0291 150.619 73.933C150.455 73.9241 150.319 74.0671 150.319 74.2437C150.319 74.4091 150.439 74.5432 150.592 74.5522C152.184 74.6416 153.552 75.4909 154.067 75.853C154.191 75.9402 154.358 75.9089 154.447 75.7793Z" fill="#FEB546"/>
<path d="M111.499 73.705H130.5C130.826 73.705 131.093 73.4189 131.093 73.0635V71.5167C131.093 71.1636 130.829 70.8752 130.5 70.8752H111.499C111.172 70.8752 110.906 71.1613 110.906 71.5167V73.0635C110.906 73.4166 111.172 73.705 111.499 73.705Z" fill="white"/>
<path d="M118.05 81.1705H130.5C130.826 81.1705 131.093 80.8844 131.093 80.529V78.9822C131.093 78.629 130.829 78.3407 130.5 78.3407H118.05C117.723 78.3407 117.456 78.6268 117.456 78.9822V80.529C117.458 80.8844 117.723 81.1705 118.05 81.1705Z" fill="white"/>
<path d="M98.9196 81.1705H114.513C114.84 81.1705 115.107 80.8844 115.107 80.529V78.9822C115.107 78.629 114.842 78.3407 114.513 78.3407H98.9196C98.5928 78.3407 98.326 78.6268 98.326 78.9822V80.529C98.326 80.8844 98.5928 81.1705 98.9196 81.1705Z" fill="white"/>
<path d="M73.9495 73.705H106.967C107.294 73.705 107.561 73.4189 107.561 73.0635V71.5167C107.561 71.1636 107.296 70.8752 106.967 70.8752H73.9475C73.6207 70.8752 73.3538 71.1613 73.3538 71.5167V73.0635C73.3559 73.4166 73.6207 73.705 73.9495 73.705Z" fill="white"/>
<path d="M73.9496 95.8063H130.5C130.826 95.8063 131.093 95.5202 131.093 95.1648V93.6181C131.093 93.2649 130.829 92.9766 130.5 92.9766H73.9496C73.6228 92.9766 73.3559 93.2627 73.3559 93.6181V95.1648C73.3559 95.518 73.6207 95.8063 73.9496 95.8063Z" fill="white"/>
<path d="M101.859 88.636H130.5C130.826 88.636 131.093 88.3499 131.093 87.9945V86.4478C131.093 86.0946 130.829 85.8063 130.5 85.8063H101.859C101.532 85.8063 101.265 86.0924 101.265 86.4478V87.9945C101.265 88.3499 101.532 88.636 101.859 88.636Z" fill="white"/>
<path d="M73.9483 88.636H96.3077C96.6345 88.636 96.9014 88.3499 96.9014 87.9945V86.4478C96.9014 86.0946 96.6366 85.8063 96.3077 85.8063H73.9483C73.6215 85.8063 73.3547 86.0924 73.3547 86.4478V87.9945C73.3547 88.3499 73.6195 88.636 73.9483 88.636Z" fill="white"/>
<path d="M73.729 10.2684L71.7247 26.5807L82.4473 18.1184L115.267 0L89.8811 2.51234C89.8811 2.51234 76.9495 5.90757 76.2483 6.59154C75.5492 7.2755 73.729 10.2684 73.729 10.2684Z" fill="#25532A"/>
<path d="M62.4872 0.415743L115.267 0L73.729 10.2684L62.4872 0.415743Z" fill="#5BC767"/>
<path d="M90.6961 26.6791L76.8647 14.6739L115.267 0L90.6961 26.6791Z" fill="#5BC767"/>
<path d="M8.45041 98.4373L9.14746 97.3242C8.08017 96.5441 7.10389 95.5897 6.24343 94.4833L5.29197 95.3483C6.22689 96.5486 7.28797 97.5879 8.45041 98.4373Z" fill="#5BC767"/>
<path d="M1.46857 87.4894L2.65376 87.0871C1.93396 84.6083 1.45822 81.7964 1.23897 78.7253L-3.8147e-06 78.8281C0.225452 81.9998 0.719807 84.9145 1.46857 87.4894ZM0.0413666 70.0506L1.27827 70.1869C1.31343 69.8181 1.35273 69.4493 1.39824 69.0827C1.5513 67.8333 1.77262 66.5704 2.05599 65.3299C2.3166 64.1855 2.63721 63.0343 3.00539 61.9078L1.8326 61.4585C1.44994 62.6275 1.11901 63.8234 0.848049 65.008C0.554337 66.2955 0.32473 67.6075 0.163395 68.9062C0.119961 69.275 0.078598 69.6616 0.0413666 70.0506ZM6.41825 54.2322C7.74616 51.8875 9.33261 49.5786 11.1301 47.3724L10.1972 46.4851C8.35219 48.7493 6.72437 51.1208 5.35716 53.5304L6.41825 54.2322ZM45.2525 51.0538C46.0984 51.2795 48.2558 51.3309 49.6395 50.4391C50.6737 49.773 51.5363 48.7247 52.1299 47.4127L51.0129 46.8226C50.5165 47.9178 49.8402 48.7471 49.0025 49.2858C48.0055 49.9295 46.2246 49.9295 45.5503 49.7507C45.4593 49.7261 45.4262 49.7082 45.4262 49.7082C45.3745 49.6724 45.3104 49.6277 45.2483 49.583L44.5575 50.7006C44.6278 50.752 44.7002 50.8012 44.7726 50.8504C44.8946 50.9353 45.0518 51.0001 45.2525 51.0538ZM16.7933 41.3777C18.7707 39.5583 20.9136 37.8305 23.1578 36.2435L22.4773 35.1192C20.1876 36.7375 18.0054 38.4988 15.9867 40.354L16.7933 41.3777ZM40.0794 43.1524L41.2956 42.8775C41.1343 42.0505 41.0536 41.2056 41.0515 40.3696C41.0495 39.1895 41.188 37.9735 41.4673 36.7509C41.6183 36.087 41.8148 35.4098 42.0464 34.7392L40.884 34.2676C40.6337 34.9873 40.4248 35.716 40.2614 36.429C39.9573 37.7567 39.8064 39.0844 39.8084 40.3741C39.8105 41.2995 39.9015 42.236 40.0794 43.1524ZM51.0067 39.0196L52.1278 38.4407C51.0026 35.8948 48.8846 33.6663 46.3218 32.323L46.1501 32.2358L45.6206 33.4518L45.7778 33.5322C48.0944 34.7437 49.9994 36.7442 51.0067 39.0196ZM30.3848 32.9958C32.6394 32.2515 34.4285 31.8 35.2952 31.7553C36.288 31.7038 37.1981 31.6927 38.073 31.7217L38.1103 30.3784C37.2022 30.3493 36.2611 30.3605 35.2352 30.4119C33.9135 30.479 31.4024 31.2546 30.0208 31.7106L30.3848 32.9958ZM46.0757 27.5598C47.7697 25.4141 49.7533 23.5499 51.9685 22.0188L51.2984 20.8878C48.9797 22.4904 46.903 24.4418 45.1304 26.6881L46.0757 27.5598Z" fill="#5BC767"/>
<path d="M59.0997 18.5788C60.4069 18.1899 61.7265 17.9217 63.0234 17.7786L62.8973 16.442C61.5321 16.5918 60.1422 16.8756 58.7687 17.2824L59.0997 18.5788Z" fill="#5BC767"/>
<path d="M116.126 208.5C116.126 208.5 116.583 213.375 120.143 213.712C116.583 214.05 116.126 218.924 116.126 218.924C116.126 218.924 115.669 214.05 112.109 213.712C115.669 213.375 116.126 208.5 116.126 208.5Z" fill="#5BC767"/>
<path d="M178.067 45.2758C178.067 45.2758 178.795 53.0363 184.463 53.5728C178.795 54.1092 178.067 61.8697 178.067 61.8697C178.067 61.8697 177.339 54.1092 171.672 53.5728C177.339 53.0363 178.067 45.2758 178.067 45.2758Z" fill="#5BC767"/>
<path d="M41.0407 110.194C41.0407 110.194 41.5971 117.07 45.918 117.546C41.595 118.022 41.0407 124.897 41.0407 124.897C41.0407 124.897 40.4843 118.022 36.1634 117.546C40.4843 117.072 41.0407 110.194 41.0407 110.194Z" fill="#007BFF"/>
<path d="M153.178 9.66711C153.178 9.66711 153.734 16.5425 158.055 17.0186C153.732 17.4947 153.178 24.3701 153.178 24.3701C153.178 24.3701 152.621 17.4947 148.301 17.0186C152.621 16.5425 153.178 9.66711 153.178 9.66711Z" fill="#007BFF"/>
</svg>
